<svg version="1.1" viewBox="0.0 0.0 516.9212598425197 230.11286089238845" fill="none" stroke="none" stroke-linecap="square" stroke-miterlimit="10" xmlns:xlink="http://www.w3.org/1999/xlink" xmlns="http://www.w3.org/2000/svg"><clipPath id="p.0"><path d="m0 0l516.92126 0l0 230.11285l-516.92126 0l0 -230.11285z" clip-rule="nonzero"/></clipPath><g clip-path="url(#p.0)"><path fill="#000000" fill-opacity="0.0" d="m0 0l516.92126 0l0 230.11285l-516.92126 0z" fill-rule="evenodd"/><path fill="#ffffff" d="m98.734886 117.144356l0 0c0 -27.918648 28.399948 -50.551178 63.433067 -50.551178l0 0c35.03311 0 63.433075 22.63253 63.433075 50.551178l0 0c0 27.918648 -28.399963 50.551186 -63.433075 50.551186l0 0c-35.03312 0 -63.433067 -22.632538 -63.433067 -50.551186z" fill-rule="evenodd"/><path stroke="#000000" stroke-width="2.0" stroke-linejoin="round" stroke-linecap="butt" d="m98.734886 117.144356l0 0c0 -27.918648 28.399948 -50.551178 63.433067 -50.551178l0 0c35.03311 0 63.433075 22.63253 63.433075 50.551178l0 0c0 27.918648 -28.399963 50.551186 -63.433075 50.551186l0 0c-35.03312 0 -63.433067 -22.632538 -63.433067 -50.551186z" fill-rule="evenodd"/><path fill="#000000" d="m138.68439 111.70498l0 3.34375l-0.328125 0q-0.28125 -1.15625 -0.640625 -1.65625q-0.359375 -0.5 -0.984375 -0.8125q-0.34375 -0.15625 -1.203125 -0.15625l-0.921875 0l0 9.53125q0 0.9375 0.09375 1.1875q0.109375 0.234375 0.421875 0.40625q0.3125 0.171875 0.828125 0.171875l0.421875 0l0 0.34375l-6.46875 0l0 -0.34375l0.40625 0q0.53125 0 0.859375 -0.1875q0.234375 -0.125 0.375 -0.4375q0.109375 -0.21875 0.109375 -1.140625l0 -9.53125l-0.90625 0q-1.234375 0 -1.8125 0.53125q-0.78125 0.734375 -1.0000076 2.09375l-0.34375 0l0 -3.34375l11.093758 0zm4.834198 3.84375l0 1.921875q0.859375 -1.3125 1.484375 -1.734375q0.640625 -0.4375 1.234375 -0.4375q0.515625 0 0.8125 0.3125q0.3125 0.3125 0.3125 0.890625q0 0.609375 -0.296875 0.953125q-0.296875 0.328125 -0.71875 0.328125q-0.484375 0 -0.84375 -0.3125q-0.34375 -0.3125 -0.40625 -0.34375q-0.09375 -0.0625 -0.21875 -0.0625q-0.265625 0 -0.5 0.203125q-0.375 0.3125 -0.5625 0.890625q-0.296875 0.875 -0.296875 1.9375l0 1.96875l0.015625 0.5q0 0.53125 0.0625 0.671875q0.109375 0.25 0.3125 0.359375q0.21875 0.109375 0.734375 0.140625l0 0.328125l-4.59375 0l0 -0.328125q0.546875 -0.046875 0.734375 -0.296875q0.203125 -0.265625 0.203125 -1.375l0 -4.71875q0 -0.71875 -0.0625 -0.921875q-0.09375 -0.25 -0.265625 -0.375q-0.171875 -0.125 -0.609375 -0.171875l0 -0.328125l3.46875 0zm9.452408 7.265625q-1.5625 1.375 -2.796875 1.375q-0.734375 0 -1.21875 -0.484375q-0.46875 -0.484375 -0.46875 -1.203125q0 -0.96875 0.828125 -1.75q0.84375 -0.78125 3.65625 -2.078125l0 -0.84375q0 -0.96875 -0.109375 -1.21875q-0.09375 -0.25 -0.390625 -0.4375q-0.296875 -0.1875 -0.65625 -0.1875q-0.59375 0 -0.96875 0.265625q-0.25 0.15625 -0.25 0.375q0 0.203125 0.265625 0.484375q0.34375 0.390625 0.34375 0.75q0 0.453125 -0.34375 0.765625q-0.328125 0.3125 -0.859375 0.3125q-0.578125 0 -0.96875 -0.34375q-0.375 -0.359375 -0.375 -0.8125q0 -0.65625 0.515625 -1.25q0.515625 -0.609375 1.4375 -0.921875q0.9375 -0.3125 1.9375 -0.3125q1.21875 0 1.921875 0.515625q0.703125 0.5 0.921875 1.109375q0.125 0.375 0.125 1.75l0 3.3125q0 0.578125 0.046875 0.734375q0.046875 0.15625 0.125 0.234375q0.09375 0.0625 0.21875 0.0625q0.234375 0 0.484375 -0.34375l0.265625 0.21875q-0.453125 0.6875 -0.9375 1.0q-0.484375 0.296875 -1.109375 0.296875q-0.734375 0 -1.140625 -0.34375q-0.40625 -0.34375 -0.5 -1.03125zm0 -0.671875l0 -2.84375q-1.09375 0.640625 -1.640625 1.375q-0.359375 0.5 -0.359375 1.0q0 0.40625 0.3125 0.734375q0.21875 0.25 0.625 0.25q0.46875 0 1.0625 -0.515625zm6.671875 -10.71875q0.59375 0 1.0 0.421875q0.421875 0.40625 0.421875 0.984375q0 0.578125 -0.421875 1.0q-0.40625 0.40625 -1.0 0.40625q-0.578125 0 -0.984375 -0.40625q-0.40625 -0.421875 -0.40625 -1.0q0 -0.578125 0.40625 -0.984375q0.40625 -0.421875 0.984375 -0.421875zm1.28125 4.125l0 6.75q0 0.90625 0.203125 1.15625q0.21875 0.25 0.828125 0.28125l0 0.328125l-4.609375 0l0 -0.328125q0.578125 -0.015625 0.84375 -0.328125q0.1875 -0.203125 0.1875 -1.109375l0 -4.96875q0 -0.90625 -0.21875 -1.15625q-0.203125 -0.25 -0.8125 -0.296875l0 -0.328125l3.578125 0zm5.339554 0l0 1.09375q0.65625 -0.703125 1.25 -1.015625q0.609375 -0.328125 1.296875 -0.328125q0.828125 0 1.375 0.453125q0.546875 0.453125 0.734375 1.140625q0.140625 0.515625 0.140625 2.0l0 3.3125q0 0.984375 0.171875 1.234375q0.1875 0.234375 0.75 0.296875l0 0.328125l-4.3125 0l0 -0.328125q0.484375 -0.0625 0.703125 -0.40625q0.140625 -0.21875 0.140625 -1.125l0 -3.78125q0 -1.0625 -0.09375 -1.328125q-0.078125 -0.265625 -0.28125 -0.421875q-0.1875 -0.15625 -0.421875 -0.15625q-0.78125 0 -1.453125 1.125l0 4.5625q0 0.953125 0.171875 1.21875q0.1875 0.25 0.671875 0.3125l0 0.328125l-4.3125 0l0 -0.328125q0.53125 -0.046875 0.765625 -0.34375q0.15625 -0.203125 0.15625 -1.1875l0 -4.8125q0 -0.96875 -0.1875 -1.203125q-0.171875 -0.234375 -0.734375 -0.3125l0 -0.328125l3.46875 0zm8.938217 -4.125q0.59375 0 1.0 0.421875q0.421875 0.40625 0.421875 0.984375q0 0.578125 -0.421875 1.0q-0.40625 0.40625 -1.0 0.40625q-0.578125 0 -0.984375 -0.40625q-0.40625 -0.421875 -0.40625 -1.0q0 -0.578125 0.40625 -0.984375q0.40625 -0.421875 0.984375 -0.421875zm1.28125 4.125l0 6.75q0 0.90625 0.203125 1.15625q0.21875 0.25 0.828125 0.28125l0 0.328125l-4.609375 0l0 -0.328125q0.578125 -0.015625 0.84375 -0.328125q0.1875 -0.203125 0.1875 -1.109375l0 -4.96875q0 -0.90625 -0.21875 -1.15625q-0.203125 -0.25 -0.8125 -0.296875l0 -0.328125l3.578125 0zm5.3395386 0l0 1.09375q0.65625 -0.703125 1.25 -1.015625q0.609375 -0.328125 1.296875 -0.328125q0.828125 0 1.375 0.453125q0.546875 0.453125 0.734375 1.140625q0.140625 0.515625 0.140625 2.0l0 3.3125q0 0.984375 0.171875 1.234375q0.1875 0.234375 0.75 0.296875l0 0.328125l-4.3125 0l0 -0.328125q0.484375 -0.0625 0.703125 -0.40625q0.140625 -0.21875 0.140625 -1.125l0 -3.78125q0 -1.0625 -0.09375 -1.328125q-0.078125 -0.265625 -0.28125 -0.421875q-0.1875 -0.15625 -0.421875 -0.15625q-0.78125 0 -1.453125 1.125l0 4.5625q0 0.953125 0.171875 1.21875q0.1875 0.25 0.671875 0.3125l0 0.328125l-4.3124847 0l0 -0.328125q0.53125 -0.046875 0.765625 -0.34375q0.15625 -0.203125 0.15625 -1.1875l0 -4.8125q0 -0.96875 -0.1875 -1.203125q-0.171875 -0.234375 -0.734375 -0.3125l0 -0.328125l3.4687347 0zm12.360092 0.09375l2.875 0l0 1.0l-1.640625 0q0.453125 0.453125 0.625 0.8125q0.21875 0.5 0.21875 1.03125q0 0.90625 -0.515625 1.578125q-0.5 0.671875 -1.375 1.0625q-0.859375 0.375 -1.53125 0.375q-0.0625 0 -1.09375 -0.046875q-0.40625 0 -0.6875 0.265625q-0.28125 0.265625 -0.28125 0.640625q0 0.328125 0.25 0.546875q0.25 0.203125 0.8125 0.203125l1.578125 -0.015625q1.90625 0 2.640625 0.40625q1.015625 0.59375 1.015625 1.796875q0 0.78125 -0.46875 1.40625q-0.46875 0.640625 -1.25 0.9375q-1.171875 0.45313263 -2.703125 0.45313263q-1.140625 0 -2.09375 -0.23438263q-0.953125 -0.21875 -1.359375 -0.625q-0.40625 -0.390625 -0.40625 -0.828125q0 -0.40625 0.3125 -0.75q0.3125 -0.328125 1.171875 -0.5625q-1.1875 -0.578125 -1.1875 -1.609375q0 -0.640625 0.484375 -1.21875q0.484375 -0.59375 1.53125 -1.03125q-1.21875 -0.453125 -1.765625 -1.171875q-0.546875 -0.734375 -0.546875 -1.6875q0 -1.25 1.015625 -2.15625q1.015625 -0.921875 2.625 -0.921875q0.84375 0 1.75 0.34375zm-1.578125 0.21875q-0.53125 0 -0.890625 0.53125q-0.359375 0.53125 -0.359375 2.203125q0 1.359375 0.359375 1.875q0.359375 0.5 0.84375 0.5q0.546875 0 0.90625 -0.5q0.375 -0.5 0.375 -1.953125q0 -1.625 -0.40625 -2.21875q-0.296875 -0.4375 -0.828125 -0.4375zm-0.53125 9.453125q-0.9375 0 -1.234375 0.15625q-0.515625 0.28125 -0.515625 0.765625q0 0.46875 0.53125 0.84375q0.546875 0.375 2.03125 0.375q1.265625 0 1.984375 -0.34375q0.71875 -0.328125 0.71875 -0.9375q0 -0.21875 -0.125 -0.375q-0.25 -0.28125 -0.75 -0.390625q-0.5 -0.09375 -2.640625 -0.09375z" fill-rule="nonzero"/><path fill="#000000" fill-opacity="0.0" d="m26.829372 116.89239l71.90552 0.25196838" fill-rule="evenodd"/><path stroke="#000000" stroke-width="2.0" stroke-linejoin="round" stroke-linecap="butt" d="m26.82937 116.89239l59.905594 0.20992279" fill-rule="evenodd"/><path fill="#000000" stroke="#000000" stroke-width="2.0" stroke-linecap="butt" d="m86.72339 120.405754l9.087715 -3.2716446l-9.064568 -3.3352432z" fill-rule="evenodd"/><path fill="#000000" fill-opacity="0.0" d="m207.02191 81.39928c0 -21.389225 44.204727 -42.510735 88.409454 -42.77845c44.204712 -0.26771545 88.409454 20.31836 88.409454 40.63672" fill-rule="evenodd"/><path stroke="#000000" stroke-width="2.0" stroke-linejoin="round" stroke-linecap="butt" d="m207.0219 81.39928c0 -21.389225 44.204727 -42.510735 88.40944 -42.77845c22.102386 -0.13385773 44.204742 4.945732 60.781494 12.598579c8.288391 3.8264236 15.195404 8.296162 20.030273 13.079193c1.2087402 1.1957626 2.2879333 2.4110947 3.2268677 3.6408615l0.082611084 0.110435486" fill-rule="evenodd"/><path fill="#000000" stroke="#000000" stroke-width="2.0" stroke-linecap="butt" d="m376.46725 69.23039l6.328705 7.296402l-0.15802002 -9.657394z" fill-rule="evenodd"/><path fill="#000000" fill-opacity="0.0" d="m207.02191 152.88943c0 21.255768 44.204727 42.279236 88.409454 42.51152c44.204712 0.23228455 88.409454 -20.32663 88.409454 -40.653244" fill-rule="evenodd"/><path stroke="#000000" stroke-width="2.0" stroke-linejoin="round" stroke-linecap="butt" d="m211.04077 164.19646l0.006454468 0.009384155c0.112960815 0.16023254 0.22813416 0.3202057 0.34550476 0.47994995c0.93891907 1.2778625 2.0181274 2.5397644 3.2268524 3.7806854c4.8349 4.963669 11.741882 9.5915985 20.030273 13.562515c16.576767 7.9418945 38.679123 13.255829 60.78148 13.3719635c44.204742 0.23228455 88.409454 -20.32663 88.409454 -40.65326" fill-rule="evenodd"/><path fill="#000000" stroke="#000000" stroke-width="2.0" stroke-linecap="butt" d="m214.15346 163.09012l-6.152359 -7.4457245l-0.07304382 9.658417z" fill-rule="evenodd"/><path fill="#ffffff" d="m365.26868 117.010895l0 0c0 -29.486519 28.4021 -53.390064 63.437836 -53.390064l0 0c35.035736 0 63.437836 23.903545 63.437836 53.390064l0 0c0 29.486526 -28.4021 53.390076 -63.437836 53.390076l0 0c-35.035736 0 -63.437836 -23.90355 -63.437836 -53.390076zm6.735718 0l0 0c0 25.76651 25.386383 46.654373 56.702118 46.654373c31.315735 0 56.70215 -20.887863 56.70215 -46.654373l0 0c0 -25.766495 -25.386414 -46.654373 -56.70215 -46.654373l0 0c-31.315735 0 -56.702118 20.887878 -56.702118 46.654373z" fill-rule="evenodd"/><path stroke="#000000" stroke-width="2.0" stroke-linejoin="round" stroke-linecap="butt" d="m365.26868 117.010895l0 0c0 -29.486519 28.4021 -53.390064 63.437836 -53.390064l0 0c35.035736 0 63.437836 23.903545 63.437836 53.390064l0 0c0 29.486526 -28.4021 53.390076 -63.437836 53.390076l0 0c-35.035736 0 -63.437836 -23.90355 -63.437836 -53.390076zm6.735718 0l0 0c0 25.76651 25.386383 46.654373 56.702118 46.654373c31.315735 0 56.70215 -20.887863 56.70215 -46.654373l0 0c0 -25.766495 -25.386414 -46.654373 -56.70215 -46.654373l0 0c-31.315735 0 -56.702118 20.887878 -56.702118 46.654373z" fill-rule="evenodd"/><path fill="#000000" fill-opacity="0.0" d="m375.86877 97.75721l105.67355 0l0 34.60076l-105.67355 0z" fill-rule="evenodd"/><path fill="#000000" d="m392.28857 119.08346l0 3.421875q0 1.0 0.125 1.265625q0.125 0.265625 0.4375 0.421875q0.3125 0.140625 1.15625 0.140625l0 0.34375l-6.28125 0l0 -0.34375q0.859375 0 1.15625 -0.15625q0.3125 -0.15625 0.4375 -0.40625q0.125 -0.265625 0.125 -1.265625l0 -8.015625q0 -1.0 -0.125 -1.25q-0.125 -0.265625 -0.4375 -0.421875q-0.296875 -0.15625 -1.15625 -0.15625l0 -0.34375l5.390625 0q2.65625 0 3.8125 0.953125q1.15625 0.953125 1.15625 2.375q0 1.203125 -0.75 2.0625q-0.734375 0.84375 -2.046875 1.15625q-0.890625 0.21875 -3.0 0.21875zm0 -6.046875l0 5.34375q0.3125 0.015625 0.46875 0.015625q1.109375 0 1.703125 -0.65625q0.609375 -0.671875 0.609375 -2.046875q0 -1.375 -0.609375 -2.015625q-0.59375 -0.640625 -1.796875 -0.640625l-0.375 0zm10.520996 3.125l0 1.921875q0.859375 -1.3125 1.484375 -1.734375q0.640625 -0.4375 1.234375 -0.4375q0.515625 0 0.8125 0.3125q0.3125 0.3125 0.3125 0.890625q0 0.609375 -0.296875 0.953125q-0.296875 0.328125 -0.71875 0.328125q-0.484375 0 -0.84375 -0.3125q-0.34375 -0.3125 -0.40625 -0.34375q-0.09375 -0.0625 -0.21875 -0.0625q-0.265625 0 -0.5 0.203125q-0.375 0.3125 -0.5625 0.890625q-0.296875 0.875 -0.296875 1.9375l0 1.96875l0.015625 0.5q0 0.53125 0.0625 0.671875q0.109375 0.25 0.3125 0.359375q0.21875 0.109375 0.734375 0.140625l0 0.328125l-4.59375 0l0 -0.328125q0.546875 -0.046875 0.734375 -0.296875q0.203125 -0.265625 0.203125 -1.375l0 -4.71875q0 -0.71875 -0.0625 -0.921875q-0.09375 -0.25 -0.265625 -0.375q-0.171875 -0.125 -0.609375 -0.171875l0 -0.328125l3.46875 0zm11.968018 3.953125l-4.671875 0q0.078125 1.6875 0.90625 2.671875q0.625 0.765625 1.5 0.765625q0.546875 0 0.984375 -0.296875q0.453125 -0.3125 0.96875 -1.109375l0.3125 0.203125q-0.6875 1.40625 -1.53125 2.0q-0.84375 0.578125 -1.9375 0.578125q-1.890625 0 -2.875 -1.453125q-0.78125 -1.171875 -0.78125 -2.921875q0 -2.125 1.15625 -3.375q1.15625 -1.265625 2.703125 -1.265625q1.28125 0 2.234375 1.0625q0.953125 1.046875 1.03125 3.140625zm-2.234375 -0.609375q0 -1.46875 -0.171875 -2.015625q-0.15625 -0.546875 -0.484375 -0.828125q-0.203125 -0.171875 -0.515625 -0.171875q-0.46875 0 -0.78125 0.46875q-0.53125 0.8125 -0.53125 2.21875l0 0.328125l2.484375 0zm11.577423 -7.1875l0 9.8125q0 0.984375 0.0625 1.171875q0.0625 0.296875 0.265625 0.453125q0.21875 0.140625 0.71875 0.171875l0 0.296875l-3.59375 0.703125l0 -1.34375q-0.640625 0.78125 -1.15625 1.0625q-0.5 0.28125 -1.140625 0.28125q-1.625 0 -2.578125 -1.453125q-0.765625 -1.1875 -0.765625 -2.90625q0 -1.375 0.46875 -2.453125q0.484375 -1.09375 1.296875 -1.640625q0.828125 -0.5625 1.78125 -0.5625q0.609375 0 1.078125 0.234375q0.484375 0.234375 1.015625 0.828125l0 -2.578125q0 -0.96875 -0.078125 -1.171875q-0.109375 -0.265625 -0.328125 -0.390625q-0.21875 -0.125 -0.828125 -0.125l0 -0.390625l3.78125 0zm-2.546875 5.78125q-0.671875 -1.296875 -1.65625 -1.296875q-0.328125 0 -0.546875 0.1875q-0.34375 0.28125 -0.5625 1.0q-0.203125 0.703125 -0.203125 2.171875q0 1.609375 0.234375 2.390625q0.234375 0.765625 0.640625 1.109375q0.21875 0.171875 0.578125 0.171875q0.796875 0 1.515625 -1.25l0 -4.484375zm6.688202 -6.0625q0.59375 0 1.0 0.421875q0.421875 0.40625 0.421875 0.984375q0 0.578125 -0.421875 1.0q-0.40625 0.40625 -1.0 0.40625q-0.578125 0 -0.984375 -0.40625q-0.40625 -0.421875 -0.40625 -1.0q0 -0.578125 0.40625 -0.984375q0.40625 -0.421875 0.984375 -0.421875zm1.28125 4.125l0 6.75q0 0.90625 0.203125 1.15625q0.21875 0.25 0.828125 0.28125l0 0.328125l-4.609375 0l0 -0.328125q0.578125 -0.015625 0.84375 -0.328125q0.1875 -0.203125 0.1875 -1.109375l0 -4.96875q0 -0.90625 -0.21875 -1.15625q-0.203125 -0.25 -0.8125 -0.296875l0 -0.328125l3.578125 0zm8.808319 6.3125l0.28125 0.21875q-0.59375 1.140625 -1.5 1.6875q-0.890625 0.546875 -1.90625 0.546875q-1.703125 0 -2.734375 -1.28125q-1.015625 -1.28125 -1.015625 -3.09375q0 -1.734375 0.9375 -3.046875q1.125 -1.59375 3.09375 -1.59375q1.3125 0 2.09375 0.671875q0.78125 0.65625 0.78125 1.46875q0 0.515625 -0.3125 0.828125q-0.3125 0.3125 -0.828125 0.3125q-0.53125 0 -0.890625 -0.34375q-0.34375 -0.359375 -0.4375 -1.28125q-0.046875 -0.5625 -0.265625 -0.796875q-0.203125 -0.234375 -0.484375 -0.234375q-0.4375 0 -0.75 0.46875q-0.46875 0.703125 -0.46875 2.15625q0 1.203125 0.375 2.296875q0.390625 1.09375 1.046875 1.640625q0.5 0.390625 1.1875 0.390625q0.453125 0 0.84375 -0.203125q0.40625 -0.21875 0.953125 -0.8125zm4.7180176 -9.4375l0 3.125l2.015625 0l0 0.90625l-2.015625 0l0 5.25q0 0.734375 0.0625 0.953125q0.0625 0.21875 0.234375 0.359375q0.171875 0.125 0.328125 0.125q0.59375 0 1.109375 -0.90625l0.28125 0.203125q-0.734375 1.75 -2.390625 1.75q-0.8125 0 -1.375 -0.453125q-0.5625 -0.453125 -0.71875 -1.015625q-0.09375 -0.3125 -0.09375 -1.671875l0 -4.59375l-1.109375 0l0 -0.328125q1.15625 -0.8125 1.953125 -1.703125q0.8125 -0.890625 1.40625 -2.0l0.3125 0zm4.868927 -1.0q0.59375 0 1.0 0.421875q0.421875 0.40625 0.421875 0.984375q0 0.578125 -0.421875 1.0q-0.40625 0.40625 -1.0 0.40625q-0.578125 0 -0.984375 -0.40625q-0.40625 -0.421875 -0.40625 -1.0q0 -0.578125 0.40625 -0.984375q0.40625 -0.421875 0.984375 -0.421875zm1.28125 4.125l0 6.75q0 0.90625 0.203125 1.15625q0.21875 0.25 0.828125 0.28125l0 0.328125l-4.609375 0l0 -0.328125q0.578125 -0.015625 0.84375 -0.328125q0.1875 -0.203125 0.1875 -1.109375l0 -4.96875q0 -0.90625 -0.21875 -1.15625q-0.203125 -0.25 -0.8125 -0.296875l0 -0.328125l3.578125 0zm5.339569 0l0 1.09375q0.65625 -0.703125 1.25 -1.015625q0.609375 -0.328125 1.296875 -0.328125q0.828125 0 1.375 0.453125q0.546875 0.453125 0.734375 1.140625q0.140625 0.515625 0.140625 2.0l0 3.3125q0 0.984375 0.171875 1.234375q0.1875 0.234375 0.75 0.296875l0 0.328125l-4.3125 0l0 -0.328125q0.484375 -0.0625 0.703125 -0.40625q0.140625 -0.21875 0.140625 -1.125l0 -3.78125q0 -1.0625 -0.09375 -1.328125q-0.078125 -0.265625 -0.28125 -0.421875q-0.1875 -0.15625 -0.421875 -0.15625q-0.78125 0 -1.453125 1.125l0 4.5625q0 0.953125 0.171875 1.21875q0.1875 0.25 0.671875 0.3125l0 0.328125l-4.3125 0l0 -0.328125q0.53125 -0.046875 0.765625 -0.34375q0.15625 -0.203125 0.15625 -1.1875l0 -4.8125q0 -0.96875 -0.1875 -1.203125q-0.171875 -0.234375 -0.734375 -0.3125l0 -0.328125l3.46875 0zm12.360077 0.09375l2.875 0l0 1.0l-1.640625 0q0.453125 0.453125 0.625 0.8125q0.21875 0.5 0.21875 1.03125q0 0.90625 -0.515625 1.578125q-0.5 0.671875 -1.375 1.0625q-0.859375 0.375 -1.53125 0.375q-0.0625 0 -1.09375 -0.046875q-0.40625 0 -0.6875 0.265625q-0.28125 0.265625 -0.28125 0.640625q0 0.328125 0.25 0.546875q0.25 0.203125 0.8125 0.203125l1.578125 -0.015625q1.90625 0 2.640625 0.40625q1.015625 0.59375 1.015625 1.796875q0 0.78125 -0.46875 1.40625q-0.46875 0.640625 -1.25 0.9374924q-1.171875 0.453125 -2.703125 0.453125q-1.140625 0 -2.09375 -0.234375q-0.953125 -0.21875 -1.359375 -0.6249924q-0.40625 -0.390625 -0.40625 -0.828125q0 -0.40625 0.3125 -0.75q0.3125 -0.328125 1.171875 -0.5625q-1.1875 -0.578125 -1.1875 -1.609375q0 -0.640625 0.484375 -1.21875q0.484375 -0.59375 1.53125 -1.03125q-1.21875 -0.453125 -1.765625 -1.171875q-0.546875 -0.734375 -0.546875 -1.6875q0 -1.25 1.015625 -2.15625q1.015625 -0.921875 2.625 -0.921875q0.84375 0 1.75 0.34375zm-1.578125 0.21875q-0.53125 0 -0.890625 0.53125q-0.359375 0.53125 -0.359375 2.203125q0 1.359375 0.359375 1.875q0.359375 0.5 0.84375 0.5q0.546875 0 0.90625 -0.5q0.375 -0.5 0.375 -1.953125q0 -1.625 -0.40625 -2.21875q-0.296875 -0.4375 -0.828125 -0.4375zm-0.53125 9.453125q-0.9375 0 -1.234375 0.15625q-0.515625 0.28125 -0.515625 0.765625q0 0.46875 0.53125 0.84375q0.546875 0.37499237 2.03125 0.37499237q1.265625 0 1.984375 -0.34374237q0.71875 -0.328125 0.71875 -0.9375q0 -0.21875 -0.125 -0.375q-0.25 -0.28125 -0.75 -0.390625q-0.5 -0.09375 -2.640625 -0.09375z" fill-rule="nonzero"/><path fill="#000000" fill-opacity="0.0" d="m232.19685 2.7585301l133.07088 0l0 33.82677l-133.07088 0z" fill-rule="evenodd"/><path fill="#000000" d="m276.43518 21.428528l-0.625 2.09375q0.984375 -1.15625 1.765625 -1.625q0.78125 -0.46875 1.59375 -0.46875q0.8125 0 1.375 0.65625q0.578125 0.640625 0.578125 1.65625q0 2.015625 -1.625 4.09375q-1.625 2.0625 -3.796875 2.0625q-0.453125 0 -0.8125 -0.109375q-0.34375 -0.09375 -0.78125 -0.34375l-0.671875 2.34375q-0.203125 0.703125 -0.203125 0.90625q0 0.203125 0.109375 0.34375q0.109375 0.140625 0.34375 0.21875q0.234375 0.078125 0.9375 0.078125l-0.078125 0.328125l-4.296875 0l0.09375 -0.328125q0.84375 -0.046875 1.140625 -0.296875q0.296875 -0.25 0.625 -1.40625l2.3125 -7.984375q0.203125 -0.75 0.203125 -0.9375q0 -0.25 -0.140625 -0.375q-0.140625 -0.140625 -0.4375 -0.140625q-0.265625 0 -0.734375 0.0625l0 -0.359375l3.125 -0.46875zm-2.125 7.296875q0.5625 0.671875 1.53125 0.671875q0.46875 0 0.953125 -0.265625q0.5 -0.265625 0.96875 -0.78125q0.46875 -0.515625 0.84375 -1.1875q0.375 -0.6875 0.671875 -1.609375q0.296875 -0.921875 0.296875 -1.828125q0 -0.71875 -0.34375 -1.109375q-0.328125 -0.390625 -0.765625 -0.390625q-0.984375 0 -1.953125 1.140625q-0.953125 1.125 -1.40625 2.625l-0.796875 2.734375zm8.296875 -6.78125l3.15625 -0.515625l-1.3125 4.4375q1.59375 -2.734375 2.890625 -3.8125q0.734375 -0.625 1.203125 -0.625q0.296875 0 0.46875 0.1875q0.171875 0.171875 0.171875 0.515625q0 0.59375 -0.3125 1.140625q-0.21875 0.40625 -0.625 0.40625q-0.203125 0 -0.359375 -0.125q-0.140625 -0.140625 -0.1875 -0.421875q-0.015625 -0.171875 -0.078125 -0.234375q-0.078125 -0.0625 -0.171875 -0.0625q-0.15625 0 -0.296875 0.0625q-0.234375 0.125 -0.71875 0.71875q-0.75 0.890625 -1.640625 2.3125q-0.375 0.59375 -0.65625 1.359375q-0.375 1.03125 -0.4375 1.25l-0.28125 1.140625l-1.40625 0l1.6875 -5.65625q0.296875 -0.984375 0.296875 -1.40625q0 -0.15625 -0.140625 -0.265625q-0.171875 -0.15625 -0.484375 -0.15625q-0.1875 0 -0.703125 0.09375l-0.0625 -0.34375zm8.510284 4.296875q-0.0625 0.453125 -0.0625 0.765625q0 0.796875 0.578125 1.375q0.578125 0.5625 1.390625 0.5625q0.65625 0 1.265625 -0.265625q0.609375 -0.265625 1.796875 -1.1875l0.1875 0.265625q-2.15625 2.140625 -4.109375 2.140625q-1.328125 0 -2.015625 -0.828125q-0.671875 -0.84375 -0.671875 -1.859375q0 -1.359375 0.84375 -2.78125q0.84375 -1.421875 2.109375 -2.203125q1.265625 -0.796875 2.59375 -0.796875q0.96875 0 1.4375 0.40625q0.46875 0.390625 0.46875 0.921875q0 0.75 -0.609375 1.453125q-0.796875 0.890625 -2.328125 1.453125q-1.015625 0.375 -2.875 0.578125zm0.0625 -0.4375q1.359375 -0.15625 2.203125 -0.53125q1.125 -0.5 1.671875 -1.1875q0.5625 -0.703125 0.5625 -1.34375q0 -0.375 -0.25 -0.609375q-0.234375 -0.234375 -0.671875 -0.234375q-0.9375 0 -1.984375 0.984375q-1.03125 0.984375 -1.53125 2.921875zm16.093018 -9.078125l-3.140625 10.75q-0.25 0.875 -0.25 1.140625q0 0.09375 0.078125 0.1875q0.078125 0.078125 0.15625 0.078125q0.125 0 0.28125 -0.125q0.3125 -0.21875 1.046875 -1.09375l0.3125 0.1875q-0.65625 0.921875 -1.328125 1.484375q-0.671875 0.5625 -1.25 0.5625q-0.3125 0 -0.515625 -0.21875q-0.203125 -0.21875 -0.203125 -0.625q0 -0.515625 0.28125 -1.390625l0.34375 -1.125q-1.3125 2.03125 -2.40625 2.828125q-0.734375 0.53125 -1.421875 0.53125q-0.6875 0 -1.203125 -0.609375q-0.515625 -0.625 -0.515625 -1.671875q0 -1.359375 0.859375 -2.890625q0.875 -1.546875 2.28125 -2.515625q1.125 -0.78125 2.0625 -0.78125q0.5 0 0.84375 0.203125q0.359375 0.203125 0.703125 0.671875l0.890625 -3.171875q0.109375 -0.34375 0.171875 -0.546875q0.109375 -0.359375 0.109375 -0.59375q0 -0.1875 -0.140625 -0.3125q-0.1875 -0.15625 -0.484375 -0.15625q-0.21875 0 -0.703125 0.0625l0 -0.34375l3.140625 -0.515625zm-3.375 6.46875q0 -0.578125 -0.34375 -0.9375q-0.328125 -0.359375 -0.859375 -0.359375q-1.140625 0 -2.390625 1.90625q-1.234375 1.890625 -1.234375 3.609375q0 0.6875 0.296875 1.046875q0.296875 0.359375 0.71875 0.359375q0.953125 0 2.375 -2.046875q1.4375 -2.046875 1.4375 -3.578125zm6.78125 -5.375q0.390625 0 0.640625 0.265625q0.265625 0.265625 0.265625 0.640625q0 0.375 -0.265625 0.65625q-0.265625 0.265625 -0.640625 0.265625q-0.375 0 -0.640625 -0.265625q-0.265625 -0.28125 -0.265625 -0.65625q0 -0.375 0.265625 -0.640625q0.265625 -0.265625 0.640625 -0.265625zm0.125 3.609375l-1.8125 6.390625q-0.171875 0.640625 -0.171875 0.78125q0 0.140625 0.078125 0.234375q0.09375 0.09375 0.203125 0.09375q0.140625 0 0.328125 -0.15625q0.515625 -0.40625 1.046875 -1.15625l0.328125 0.203125q-0.625 0.953125 -1.46875 1.59375q-0.609375 0.484375 -1.171875 0.484375q-0.375 0 -0.625 -0.21875q-0.234375 -0.234375 -0.234375 -0.5625q0 -0.34375 0.234375 -1.125l1.1875 -4.078125q0.28125 -1.0 0.28125 -1.25q0 -0.203125 -0.140625 -0.328125q-0.140625 -0.140625 -0.375 -0.140625q-0.203125 0 -0.84375 0.109375l0 -0.359375l3.15625 -0.515625zm8.089569 6.265625q-0.9375 1.140625 -1.90625 1.671875q-0.96875 0.53125 -2.046875 0.53125q-1.28125 0 -2.015625 -0.71875q-0.71875 -0.734375 -0.71875 -1.96875q0 -1.390625 0.78125 -2.734375q0.78125 -1.359375 2.09375 -2.203125q1.3125 -0.84375 2.578125 -0.84375q1.0 0 1.484375 0.421875q0.5 0.40625 0.5 1.015625q0 0.5625 -0.34375 0.96875q-0.265625 0.3125 -0.640625 0.3125q-0.28125 0 -0.46875 -0.1875q-0.1875 -0.1875 -0.1875 -0.453125q0 -0.171875 0.0625 -0.3125q0.078125 -0.15625 0.296875 -0.359375q0.21875 -0.203125 0.25 -0.296875q0.046875 -0.09375 0.046875 -0.1875q0 -0.203125 -0.171875 -0.328125q-0.265625 -0.171875 -0.75 -0.171875q-0.890625 0 -1.765625 0.625q-0.875 0.625 -1.484375 1.78125q-0.75 1.40625 -0.75 2.8125q0 0.921875 0.53125 1.46875q0.53125 0.546875 1.4375 0.546875q0.703125 0 1.390625 -0.34375q0.6875 -0.359375 1.546875 -1.28125l0.25 0.234375zm5.9211426 -8.515625l-0.703125 2.46875l1.421875 0l-0.15625 0.578125l-1.421875 0l-1.5625 5.375q-0.25 0.859375 -0.25 1.125q0 0.15625 0.0625 0.234375q0.078125 0.078125 0.171875 0.078125q0.234375 0 0.609375 -0.3125q0.21875 -0.1875 0.96875 -1.125l0.3125 0.234375q-0.84375 1.21875 -1.59375 1.71875q-0.5 0.34375 -1.03125 0.34375q-0.390625 0 -0.65625 -0.25q-0.25 -0.25 -0.25 -0.640625q0 -0.5 0.296875 -1.5l1.515625 -5.28125l-1.375 0l0.09375 -0.359375q1.0 -0.265625 1.65625 -0.8125q0.671875 -0.546875 1.5 -1.875l0.390625 0z" fill-rule="nonzero"/><path fill="#000000" fill-opacity="0.0" d="m234.40158 190.39896l133.07086 0l0 33.826767l-133.07086 0z" fill-rule="evenodd"/><path fill="#000000" d="m298.6933 209.2877l-0.15625 0.609375l-1.328125 0l-1.015625 3.984375q-0.65625 2.625 -1.328125 4.0625q-0.953125 2.03125 -2.0625 2.8125q-0.84375 0.59375 -1.671875 0.59375q-0.546875 0 -0.9375 -0.328125q-0.28125 -0.234375 -0.28125 -0.59375q0 -0.296875 0.234375 -0.515625q0.234375 -0.203125 0.578125 -0.203125q0.234375 0 0.40625 0.15625q0.171875 0.15625 0.171875 0.34375q0 0.203125 -0.1875 0.375q-0.15625 0.125 -0.15625 0.203125q0 0.078125 0.0625 0.125q0.09375 0.0625 0.265625 0.0625q0.390625 0 0.828125 -0.25q0.421875 -0.25 0.765625 -0.734375q0.328125 -0.484375 0.625 -1.40625q0.140625 -0.375 0.6875 -2.515625l1.59375 -6.171875l-1.59375 0l0.125 -0.609375q0.765625 0 1.0625 -0.09375q0.296875 -0.109375 0.546875 -0.40625q0.25 -0.296875 0.65625 -1.109375q0.53125 -1.09375 1.03125 -1.6875q0.671875 -0.8125 1.40625 -1.21875q0.75 -0.40625 1.40625 -0.40625q0.6875 0 1.109375 0.359375q0.421875 0.34375 0.421875 0.75q0 0.3125 -0.21875 0.53125q-0.203125 0.21875 -0.53125 0.21875q-0.28125 0 -0.46875 -0.15625q-0.171875 -0.171875 -0.171875 -0.390625q0 -0.140625 0.109375 -0.359375q0.125 -0.21875 0.125 -0.28125q0 -0.140625 -0.078125 -0.203125q-0.109375 -0.09375 -0.34375 -0.09375q-0.578125 0 -1.03125 0.375q-0.609375 0.484375 -1.09375 1.515625q-0.25 0.53125 -0.890625 2.65625l1.328125 0zm3.823944 -3.828125q0.390625 0 0.640625 0.265625q0.265625 0.265625 0.265625 0.640625q0 0.375 -0.265625 0.65625q-0.265625 0.265625 -0.640625 0.265625q-0.375 0 -0.640625 -0.265625q-0.265625 -0.28125 -0.265625 -0.65625q0 -0.375 0.265625 -0.640625q0.265625 -0.265625 0.640625 -0.265625zm0.125 3.609375l-1.8125 6.390625q-0.171875 0.640625 -0.171875 0.78125q0 0.140625 0.078125 0.234375q0.09375 0.09375 0.203125 0.09375q0.140625 0 0.328125 -0.15625q0.515625 -0.40625 1.046875 -1.15625l0.328125 0.203125q-0.625 0.953125 -1.46875 1.59375q-0.609375 0.484375 -1.171875 0.484375q-0.375 0 -0.625 -0.21875q-0.234375 -0.234375 -0.234375 -0.5625q0 -0.34375 0.234375 -1.125l1.1875 -4.078125q0.28125 -1.0 0.28125 -1.25q0 -0.203125 -0.140625 -0.328125q-0.140625 -0.140625 -0.375 -0.140625q-0.203125 0 -0.84375 0.109375l0 -0.359375l3.15625 -0.515625zm5.7301636 -2.25l-0.703125 2.46875l1.421875 0l-0.15625 0.578125l-1.421875 0l-1.5625 5.375q-0.25 0.859375 -0.25 1.125q0 0.15625 0.0625 0.234375q0.078125 0.078125 0.171875 0.078125q0.234375 0 0.609375 -0.3125q0.21875 -0.1875 0.96875 -1.125l0.3125 0.234375q-0.84375 1.21875 -1.59375 1.71875q-0.5 0.34375 -1.03125 0.34375q-0.390625 0 -0.65625 -0.25q-0.25 -0.25 -0.25 -0.640625q0 -0.5 0.296875 -1.5l1.515625 -5.28125l-1.375 0l0.09375 -0.359375q1.0 -0.265625 1.65625 -0.8125q0.671875 -0.546875 1.5 -1.875l0.390625 0z" fill-rule="nonzero"/></g></svg>